<svg width="20" height="16" viewBox="0 0 20 16" fill="none" xmlns="http://www.w3.org/2000/svg">
<path d="M1 4.2502V4.2002C1 3.08009 1 2.51962 1.21799 2.0918C1.40973 1.71547 1.71547 1.40973 2.0918 1.21799C2.51962 1 3.08009 1 4.2002 1H15.8002C16.9203 1 17.4796 1 17.9074 1.21799C18.2837 1.40973 18.5905 1.71547 18.7822 2.0918C19 2.5192 19 3.07899 19 4.19691V11.8031C19 12.921 19 13.48 18.7822 13.9074C18.5905 14.2837 18.2839 14.5905 17.9076 14.7822C17.4802 15 16.921 15 15.8031 15H12M3 15C3 13.8954 2.10457 13 1 13M6 15C6 12.2386 3.76142 10 1 10M9 15C9 10.5817 5.41828 7 1 7" stroke="#00A070" stroke-width="2" stroke-linecap="round" stroke-linejoin="round"/>
</svg>
