<svg width="20" height="20" viewBox="0 0 20 20" fill="none" xmlns="http://www.w3.org/2000/svg">
<path d="M1.66797 4.99967C1.66797 4.55765 1.84356 4.13372 2.15612 3.82116C2.46868 3.5086 2.89261 3.33301 3.33464 3.33301H16.668C17.11 3.33301 17.5339 3.5086 17.8465 3.82116C18.159 4.13372 18.3346 4.55765 18.3346 4.99967V14.9997C18.3346 15.4417 18.159 15.8656 17.8465 16.1782C17.5339 16.4907 17.11 16.6663 16.668 16.6663H3.33464C2.89261 16.6663 2.46868 16.4907 2.15612 16.1782C1.84356 15.8656 1.66797 15.4417 1.66797 14.9997V4.99967Z" stroke="#00A070" stroke-width="2" stroke-linecap="round" stroke-linejoin="round"/>
<path d="M1.66797 6.66699L7.9188 11.6678C8.50988 12.1408 9.24432 12.3984 10.0013 12.3984C10.7583 12.3984 11.4927 12.1408 12.0838 11.6678L18.3346 6.66699" stroke="#00A070" stroke-width="2" stroke-linecap="round" stroke-linejoin="round"/>
</svg>
