<svg width="15" height="22" viewBox="0 0 15 22" fill="none" xmlns="http://www.w3.org/2000/svg">
<path fill-rule="evenodd" clip-rule="evenodd" d="M7.5 0C5.51088 0 3.60322 0.790176 2.1967 2.1967C0.790176 3.60322 0 5.51088 0 7.5C0 9.21 0.84 11.232 2.0655 13.401C3.306 15.5955 5.016 18.0615 6.8895 20.6865L7.5 21.5415L8.1105 20.6865C9.9855 18.0615 11.694 15.5955 12.9345 13.401C14.16 11.232 15 9.21 15 7.5C15 6.51509 14.806 5.53982 14.4291 4.62987C14.0522 3.71993 13.4997 2.89314 12.8033 2.1967C12.1069 1.50026 11.2801 0.947814 10.3701 0.570904C9.46018 0.193993 8.48491 0 7.5 0ZM7.5 3.75C6.50544 3.75 5.55161 4.14509 4.84835 4.84835C4.14509 5.55161 3.75 6.50544 3.75 7.5C3.75 8.49456 4.14509 9.44839 4.84835 10.1517C5.55161 10.8549 6.50544 11.25 7.5 11.25C8.49456 11.25 9.44839 10.8549 10.1517 10.1517C10.8549 9.44839 11.25 8.49456 11.25 7.5C11.25 6.50544 10.8549 5.55161 10.1517 4.84835C9.44839 4.14509 8.49456 3.75 7.5 3.75Z" fill="#00A070"/>
</svg>
