<svg width="40" height="42" viewBox="0 0 40 42" fill="none" xmlns="http://www.w3.org/2000/svg">
<g clip-path="url(#clip0_3002_1783)">
<path d="M39.1591 0V23.0497C38.7069 33.4703 30.1152 41.7753 19.5896 41.7753C9.06404 41.7753 0.47238 33.4703 0.0201872 23.0497C0.00807487 22.7631 0 22.4764 0 22.1857V0H10.566V5.72912H5.45054V23.0497H5.4788C5.92292 30.4584 12.0719 36.3248 19.5896 36.3248C27.1073 36.3248 33.2523 30.4584 33.6964 23.0497H33.7247V5.72912H28.6093V0H39.1591Z" fill="#00A070"/>
<path d="M22.2662 5.72912H16.9893V28.3509H22.2662V5.72912Z" fill="#CD563A"/>
<path d="M30.9434 19.5573V14.2804L8.32161 14.2804V19.5573H30.9434Z" fill="#CD563A"/>
</g>
<defs>
<clipPath id="clip0_3002_1783">
<rect width="39.1591" height="41.7753" fill="white"/>
</clipPath>
</defs>
</svg>
