<svg width="20" height="18" viewBox="0 0 20 18" fill="none" xmlns="http://www.w3.org/2000/svg">
<path d="M4 4.5002V4.2002C4 3.08009 4 2.51962 4.21799 2.0918C4.40973 1.71547 4.71547 1.40973 5.0918 1.21799C5.51962 1 6.08009 1 7.2002 1H15.8002C16.9203 1 17.4796 1 17.9074 1.21799C18.2837 1.40973 18.5905 1.71547 18.7822 2.0918C19 2.5192 19 3.07899 19 4.19691V10.8031C19 11.921 19 12.48 18.7822 12.9074C18.5905 13.2837 18.2839 13.5905 17.9076 13.7822C17.4802 14 16.921 14 15.8031 14H8.5M1 13.8002V8.2002C1 7.08009 1 6.51962 1.21799 6.0918C1.40973 5.71547 1.71547 5.40973 2.0918 5.21799C2.51962 5 3.08009 5 4.2002 5H4.80019C5.9203 5 6.47957 5 6.9074 5.21799C7.28372 5.40973 7.59048 5.71547 7.78223 6.0918C8 6.5192 8 7.079 8 8.19691V13.8031C8 14.921 8 15.48 7.78223 15.9074C7.59048 16.2837 7.28372 16.5905 6.9074 16.7822C6.47999 17 5.921 17 4.80309 17H4.19691C3.07899 17 2.5192 17 2.0918 16.7822C1.71547 16.5905 1.40973 16.2837 1.21799 15.9074C1 15.4796 1 14.9203 1 13.8002Z" stroke="#00A070" stroke-width="2" stroke-linecap="round" stroke-linejoin="round"/>
</svg>
