<svg width="20" height="20" viewBox="0 0 20 20" fill="none" xmlns="http://www.w3.org/2000/svg">
<path d="M9.6875 0C15.0391 0 19.375 4.33594 19.375 9.6875C19.375 15.0391 15.0391 19.375 9.6875 19.375C4.33594 19.375 0 15.0391 0 9.6875C0 4.33594 4.33594 0 9.6875 0ZM13.2812 12.2266C13.3594 12.1484 13.4375 11.9922 13.4375 11.8359C13.4375 11.6406 13.3203 11.4844 13.2031 11.3672L10.9375 9.6875V4.0625C10.9375 3.75 10.625 3.4375 10.3125 3.4375H9.0625C8.71094 3.4375 8.4375 3.75 8.4375 4.0625V10.1562C8.4375 10.6641 8.63281 11.0938 9.02344 11.3672L11.6406 13.3203C11.7188 13.3984 11.875 13.4766 11.9922 13.4766C12.2266 13.4766 12.3828 13.3594 12.5 13.2031L13.2812 12.2266Z" fill="#00A070"/>
</svg>
