<svg width="17" height="20" viewBox="0 0 17 20" fill="none" xmlns="http://www.w3.org/2000/svg">
<path d="M10.418 14H15.418V19M6.41797 6H1.41797V1M15.8355 7.0034C15.2748 5.61566 14.3361 4.41304 13.126 3.53223C11.9159 2.65141 10.4831 2.12752 8.99023 2.02051C7.49734 1.9135 6.00403 2.2274 4.68066 2.92661C3.3573 3.62582 2.25679 4.68254 1.50391 5.97612M1 12.9971C1.56069 14.3848 2.49943 15.5874 3.70954 16.4682C4.91965 17.3491 6.35385 17.8723 7.84675 17.9793C9.33965 18.0863 10.8317 17.7725 12.1551 17.0732C13.4785 16.374 14.5782 15.3175 15.3311 14.0239" stroke="#00A070" stroke-width="2" stroke-linecap="round" stroke-linejoin="round"/>
</svg>
