<svg width="22" height="21" viewBox="0 0 22 21" fill="none" xmlns="http://www.w3.org/2000/svg">
<path d="M1.16309 8.64292C0.849836 8.35324 1.01999 7.82955 1.44369 7.77931L7.44727 7.06722C7.61995 7.04674 7.76994 6.93831 7.84277 6.7804L10.375 1.29061C10.5537 0.903178 11.1045 0.903104 11.2832 1.29054L13.8154 6.78029C13.8883 6.93819 14.0373 7.04692 14.21 7.0674L20.2139 7.77931C20.6376 7.82955 20.8072 8.35339 20.494 8.64308L16.0559 12.7481C15.9282 12.8661 15.8714 13.0419 15.9053 13.2124L17.0831 19.1421C17.1663 19.5606 16.7209 19.8848 16.3486 19.6764L11.0733 16.7228C10.9215 16.6378 10.7372 16.6382 10.5855 16.7232L5.30956 19.6757C4.93726 19.8841 4.49107 19.5606 4.57422 19.1421L5.75227 13.2128C5.78616 13.0422 5.72946 12.8661 5.60179 12.748L1.16309 8.64292Z" stroke="#00A070" stroke-width="2" stroke-linecap="round" stroke-linejoin="round"/>
</svg>
