<svg width="20" height="12" viewBox="0 0 20 12" fill="none" xmlns="http://www.w3.org/2000/svg">
<path d="M8.68848 2.56738L8.6875 2.54688C8.63853 1.66439 8.36573 1.132 8.08203 0.75H10.9307C10.9309 0.762549 10.9326 0.775889 10.9326 0.790039V5.04785C10.9327 5.67236 11.2693 6.41211 12.0312 6.41211C12.6635 6.41193 13.1079 5.99775 13.5771 5.53613L13.5918 5.52148L13.6055 5.50684C14.4537 4.57566 15.1598 3.41533 15.6465 2.51172C15.8922 2.0556 16.0869 1.65527 16.2207 1.36816C16.2876 1.22464 16.3395 1.10905 16.375 1.02832C16.3928 0.98793 16.4066 0.95564 16.416 0.933594L16.4268 0.908203C16.4631 0.824858 16.4928 0.796873 16.5059 0.787109C16.5103 0.783827 16.5511 0.750041 16.6914 0.75H18.7705C18.6985 0.963331 18.5459 1.2973 18.3076 1.72754C18.0308 2.22743 17.682 2.7891 17.3359 3.32129C16.991 3.85184 16.6537 4.34496 16.4023 4.70605C16.2768 4.88642 16.1728 5.03421 16.1006 5.13574C16.0647 5.18626 16.0366 5.22548 16.0176 5.25195C16.0081 5.26522 16.0009 5.27558 15.9961 5.28223C15.9937 5.28549 15.9914 5.28748 15.9902 5.28906L15.9893 5.29102L15.9756 5.30957L15.9639 5.32812C15.8708 5.47447 15.67 5.77036 15.6406 6.13086C15.6073 6.54133 15.7912 6.87007 15.9902 7.12695V7.12793C15.9929 7.13153 15.9963 7.13504 15.999 7.13867C16.0025 7.14309 16.0053 7.14797 16.0088 7.15234V7.15137C16.1784 7.37551 16.4797 7.662 16.7266 7.89941C17.0158 8.17761 17.3082 8.46016 17.5361 8.72461L17.5479 8.73828C18.0126 9.25254 18.4072 9.71126 18.7061 10.1084C18.976 10.4671 19.1318 10.734 19.207 10.915C19.202 10.9151 19.1967 10.917 19.1914 10.917H17.0039C16.9041 10.917 16.8512 10.8999 16.8027 10.875C16.7385 10.842 16.6468 10.7753 16.4922 10.623C16.3344 10.4676 16.1581 10.2715 15.9023 9.99316C15.6539 9.72271 15.3515 9.39756 14.9678 9.02051L14.957 9.01074C13.6442 7.76794 12.9006 7.41706 12.2627 7.41699C12.0322 7.41699 11.5564 7.43147 11.2305 7.8291C11.0807 8.01183 11.0145 8.21634 10.9814 8.38477C10.9486 8.55191 10.9404 8.73011 10.9404 8.90332V10.8311C10.9404 10.8358 10.9395 10.8404 10.9395 10.8447C10.9116 10.8523 10.8758 10.8639 10.8291 10.8721C10.6764 10.8988 10.4523 10.917 10.1279 10.917C8.10148 10.917 5.76535 9.69622 4.06641 7.30078V7.2998L4.06055 7.29297C2.73798 5.47219 1.90338 3.88275 1.40137 2.69238C1.15017 2.09674 0.983261 1.60406 0.880859 1.23535C0.829698 1.05111 0.795204 0.901889 0.774414 0.789062C0.771918 0.775508 0.770621 0.762175 0.768555 0.75H2.93945C3.00526 0.750016 3.04296 0.75588 3.06152 0.759766C3.06831 0.768884 3.08019 0.784696 3.09473 0.811523C3.12523 0.867845 3.16273 0.952042 3.20801 1.08203V1.08301C3.76226 2.66769 4.50626 4.15596 5.2168 5.25879C5.57072 5.8081 5.93037 6.28276 6.26758 6.62988C6.43539 6.80261 6.61449 6.96156 6.80078 7.08203C6.97378 7.19389 7.22928 7.32316 7.53223 7.32324C7.6485 7.32324 7.82912 7.31203 8.01758 7.22852C8.22707 7.13559 8.38669 6.98081 8.49316 6.79199C8.6669 6.48384 8.68848 6.09349 8.68848 5.75293V2.56738Z" fill="#00A070" stroke="#00A070" stroke-width="1.5"/>
</svg>
