<svg width="18" height="18" viewBox="0 0 18 18" fill="none" xmlns="http://www.w3.org/2000/svg">
<path d="M0 18L1.27129 13.3778C0.486812 12.0247 0.0746044 10.491 0.075358 8.91825C0.0776187 4.00125 4.09797 0 9.03768 0C11.4348 0.00075 13.685 0.93 15.3775 2.616C17.0693 4.302 18.0008 6.543 18 8.9265C17.9977 13.8443 13.9774 17.8455 9.03768 17.8455C7.53805 17.8448 6.06029 17.4705 4.75132 16.7595L0 18ZM4.97136 15.1448C6.23436 15.891 7.44009 16.338 9.03466 16.3387C13.1402 16.3387 16.4846 13.0133 16.4868 8.925C16.4883 4.8285 13.1598 1.5075 9.04069 1.506C4.93218 1.506 1.59005 4.8315 1.58855 8.919C1.58779 10.5878 2.07913 11.8372 2.9043 13.1445L2.15147 15.8805L4.97136 15.1448ZM13.5524 11.0468C13.4966 10.9537 13.3474 10.8982 13.1228 10.7865C12.899 10.6748 11.798 10.1355 11.5923 10.0612C11.3873 9.987 11.2381 9.9495 11.0882 10.173C10.939 10.3958 10.5094 10.8982 10.379 11.0468C10.2487 11.1953 10.1176 11.214 9.89374 11.1023C9.66993 10.9905 8.948 10.7557 8.09269 9.996C7.42728 9.405 6.97739 8.67525 6.84702 8.45175C6.71665 8.229 6.83346 8.10825 6.94499 7.99725C7.04597 7.8975 7.1688 7.737 7.28108 7.6065C7.39487 7.4775 7.4318 7.3845 7.50716 7.23525C7.58176 7.08675 7.54484 6.95625 7.48832 6.8445C7.4318 6.7335 6.98417 5.63625 6.79804 5.19C6.61567 4.75575 6.43105 4.81425 6.2939 4.8075L5.86436 4.8C5.71515 4.8 5.47249 4.8555 5.26752 5.079C5.06255 5.3025 4.4838 5.841 4.4838 6.93825C4.4838 8.0355 5.28636 9.09525 5.39789 9.24375C5.51017 9.39225 6.97664 11.6438 9.22306 12.609C9.75735 12.8385 10.1748 12.9757 10.4996 13.0785C11.0362 13.248 11.5245 13.224 11.9103 13.167C12.3406 13.1032 13.2351 12.6277 13.422 12.1073C13.6089 11.586 13.6089 11.1398 13.5524 11.0468Z" fill="#00A070"/>
</svg>
